<?xml version="1.0" encoding="utf-8"?>
<!-- Generator: Adobe Illustrator 22.1.0, SVG Export Plug-In . SVG Version: 6.00 Build 0)  -->
<svg version="1.1" baseProfile="tiny" id="Layer_1" xmlns="http://www.w3.org/2000/svg" xmlns:xlink="http://www.w3.org/1999/xlink"
	 x="0px" y="0px" viewBox="0 0 81.7 60.8" xml:space="preserve">
<g>
	<path fill="#333333" d="M18.3,46.2c-0.3-0.3-0.7-0.5-1.1-0.7s-0.8-0.2-1.3-0.2c-0.4,0-0.7,0.1-0.9,0.2c-0.2,0.2-0.3,0.4-0.3,0.6
		c0,0.2,0.1,0.4,0.4,0.5c0.2,0.1,0.6,0.3,1,0.4c0.7,0.2,1.2,0.3,1.6,0.5s0.7,0.3,1,0.6c0.5,0.4,0.7,0.9,0.7,1.6
		c0,0.8-0.3,1.5-0.9,1.9s-1.4,0.7-2.4,0.7c-1.5,0-2.6-0.4-3.5-1.3l0.9-1.3c0.3,0.3,0.7,0.6,1.2,0.8c0.4,0.2,0.9,0.3,1.4,0.3
		c0.4,0,0.8-0.1,1.1-0.3c0.3-0.2,0.4-0.4,0.4-0.7c0-0.2-0.1-0.3-0.2-0.5s-0.3-0.2-0.6-0.3c-0.2-0.1-0.5-0.2-1-0.3
		c-0.6-0.1-1.1-0.3-1.5-0.5c-0.4-0.2-0.7-0.4-1-0.7c-0.3-0.3-0.4-0.8-0.4-1.4c0-0.5,0.1-0.9,0.4-1.2s0.6-0.7,1.1-0.9
		c0.5-0.2,1-0.3,1.7-0.3c1.3,0,2.4,0.4,3.2,1.1L18.3,46.2z"/>
	<path fill="#333333" d="M21.7,46.3c0.4-0.2,0.9-0.2,1.4-0.2c0.8,0,1.4,0.2,1.9,0.5c0.5,0.4,0.7,0.9,0.7,1.7v3.9h-1.5v-0.6
		c-0.2,0.2-0.5,0.4-0.8,0.5c-0.3,0.1-0.7,0.2-1.1,0.2c-0.3,0-0.7-0.1-1-0.2s-0.6-0.4-0.8-0.6c-0.2-0.3-0.3-0.6-0.3-1
		c0-0.6,0.2-1.1,0.6-1.4c0.4-0.3,0.9-0.5,1.4-0.5c0.4,0,0.8,0,1.1,0c0.4,0,0.6,0,0.8-0.1v-0.3c0-0.3-0.1-0.5-0.4-0.7
		c-0.2-0.2-0.6-0.2-1-0.2c-0.3,0-0.6,0.1-0.9,0.2c-0.3,0.1-0.6,0.3-0.8,0.5L20.6,47C20.9,46.7,21.3,46.5,21.7,46.3z M23.8,51.1
		c0.3-0.1,0.4-0.3,0.4-0.6v-0.9c-0.1,0-0.3,0-0.6,0l-0.7,0c-0.3,0-0.6,0.1-0.8,0.2c-0.2,0.2-0.3,0.4-0.3,0.6c0,0.3,0.1,0.5,0.3,0.6
		c0.2,0.1,0.5,0.2,0.8,0.2C23.2,51.3,23.5,51.2,23.8,51.1z"/>
	<path fill="#333333" d="M27.6,45.8c0-0.6,0.2-1.1,0.5-1.4c0.4-0.4,0.8-0.5,1.4-0.5h0.9V45h-0.5c-0.2,0-0.4,0.1-0.6,0.2
		c-0.1,0.1-0.2,0.4-0.2,0.6v0.4h1.2v1.3h-1.2v4.6h-1.5v-4.6h-1v-1.3h1V45.8z"/>
	<path fill="#333333" d="M36.5,51.5c-0.3,0.3-0.7,0.5-1.1,0.6s-0.9,0.2-1.3,0.2c-0.6,0-1.1-0.1-1.6-0.4c-0.5-0.3-0.9-0.6-1.1-1.1
		c-0.3-0.5-0.4-1-0.4-1.6c0-0.6,0.1-1.1,0.4-1.6c0.3-0.5,0.6-0.9,1.1-1.1s1-0.4,1.6-0.4c0.6,0,1.1,0.1,1.5,0.4
		c0.5,0.3,0.8,0.7,1.1,1.1c0.2,0.5,0.4,1.1,0.4,1.7v0.3h-4.5c0,0.4,0.2,0.8,0.5,1c0.3,0.3,0.7,0.4,1.2,0.4c0.3,0,0.6-0.1,0.9-0.2
		s0.5-0.2,0.7-0.4L36.5,51.5z M35.1,47.7c-0.3-0.3-0.6-0.4-1.1-0.4c-0.4,0-0.8,0.1-1.1,0.4s-0.4,0.6-0.4,1h3
		C35.5,48.3,35.3,48,35.1,47.7z"/>
	<path fill="#333333" d="M38.4,44.6h1.5v1.6h1.2v1.3h-1.2v2.6c0,0.2,0,0.4,0.1,0.5c0.1,0.1,0.2,0.2,0.4,0.2h0.7v1.4h-1.1
		c-0.5,0-1-0.1-1.2-0.4c-0.3-0.3-0.4-0.7-0.4-1.2v-3h-1v-1.3h1V44.6z"/>
	<path fill="#333333" d="M43.1,46.2l1.6,4.2l1.6-4.2h1.6l-2.8,6.9c-0.2,0.5-0.5,0.9-0.9,1.1s-0.8,0.3-1.4,0.3H42v-1.4
		c0.2,0,0.4,0,0.8,0c0.4,0,0.7-0.2,0.8-0.5l0.2-0.5l-2.4-6H43.1z"/>
	<path fill="#333333" d="M52.9,44c0.5,0,0.9,0.1,1.3,0.3c0.4,0.2,0.6,0.4,0.8,0.8c0.2,0.3,0.3,0.7,0.3,1c0,0.5-0.1,0.9-0.4,1.2
		c-0.3,0.3-0.6,0.6-1,0.6c0.4,0.1,0.8,0.3,1.1,0.7c0.3,0.4,0.5,0.8,0.5,1.3c0,0.6-0.2,1.2-0.6,1.6c-0.4,0.4-1,0.6-1.8,0.6h-4.4V44
		H52.9z M50.4,47.3h2.2c0.3,0,0.5-0.1,0.7-0.3c0.2-0.2,0.3-0.4,0.3-0.7c0-0.3-0.1-0.5-0.3-0.7c-0.2-0.2-0.4-0.3-0.7-0.3h-2.2V47.3z
		 M50.4,50.8h2.3c0.3,0,0.6-0.1,0.8-0.3c0.2-0.2,0.3-0.4,0.3-0.7c0-0.3-0.1-0.5-0.3-0.7c-0.2-0.2-0.5-0.3-0.8-0.3h-2.3V50.8z"/>
	<path fill="#333333" d="M57.9,51.9c-0.5-0.3-0.8-0.7-1.1-1.1c-0.3-0.5-0.4-1-0.4-1.6c0-0.6,0.1-1.1,0.4-1.6
		c0.3-0.5,0.6-0.9,1.1-1.1c0.5-0.3,1-0.4,1.7-0.4c0.6,0,1.2,0.1,1.7,0.4c0.5,0.3,0.8,0.7,1.1,1.1c0.3,0.5,0.4,1,0.4,1.6
		c0,0.6-0.1,1.1-0.4,1.6c-0.3,0.5-0.6,0.9-1.1,1.1c-0.5,0.3-1,0.4-1.7,0.4C58.9,52.3,58.3,52.2,57.9,51.9z M60.7,50.5
		c0.3-0.3,0.4-0.8,0.4-1.3c0-0.5-0.1-0.9-0.4-1.3c-0.3-0.3-0.7-0.5-1.1-0.5c-0.5,0-0.8,0.2-1.1,0.5c-0.3,0.3-0.4,0.8-0.4,1.3
		c0,0.5,0.1,0.9,0.4,1.3s0.7,0.5,1.1,0.5C60,51,60.4,50.8,60.7,50.5z"/>
	<path fill="#333333" d="M64.9,46.2l1.3,1.9l1.3-1.9h1.7l-2,2.9l2.1,3.1h-1.7l-1.4-2l-1.4,2h-1.7l2.1-3.1l-2-2.9H64.9z"/>
</g>
<path fill="none" stroke="#333333" stroke-miterlimit="10" d="M53.5,25.4H38.2c-1.3,0-2.4-1.1-2.4-2.4v-8.3c0-1.3,1.1-2.4,2.4-2.4
	h15.3c1.3,0,2.4,1.1,2.4,2.4V23C55.9,24.3,54.9,25.4,53.5,25.4z"/>
<polyline fill="none" stroke="#333333" stroke-miterlimit="10" points="36.7,12.8 45.9,18.8 55.1,12.8 "/>
<line fill="none" stroke="#333333" stroke-miterlimit="10" x1="59.3" y1="14.3" x2="72.5" y2="14.3"/>
<line fill="none" stroke="#333333" stroke-miterlimit="10" x1="59.3" y1="23.4" x2="72.5" y2="23.4"/>
<line fill="none" stroke="#333333" stroke-miterlimit="10" x1="59.3" y1="18.8" x2="67.3" y2="18.8"/>
<path fill="#FFFFFF" stroke="#333333" stroke-miterlimit="10" d="M28.2,34.5h15.3c1.3,0,2.4-1.1,2.4-2.4v-8.3c0-1.3-1.1-2.4-2.4-2.4
	H28.2c-1.3,0-2.4,1.1-2.4,2.4v8.3C25.8,33.4,26.8,34.5,28.2,34.5z"/>
<polyline fill="none" stroke="#333333" stroke-miterlimit="10" points="45,21.9 35.8,27.9 26.6,21.9 "/>
<line fill="none" stroke="#333333" stroke-miterlimit="10" x1="22.4" y1="23.4" x2="9.2" y2="23.4"/>
<line fill="none" stroke="#333333" stroke-miterlimit="10" x1="22.4" y1="32.5" x2="9.2" y2="32.5"/>
<line fill="none" stroke="#333333" stroke-miterlimit="10" x1="22.4" y1="27.9" x2="14.4" y2="27.9"/>
</svg>
